<svg width="20" height="20" viewBox="0 0 20 20" fill="none" xmlns="http://www.w3.org/2000/svg">
<path d="M17.0711 2.92898C13.1678 -0.974252 6.83216 -0.974252 2.92893 2.92898C-0.974297 6.83221 -0.974297 13.1679 2.92893 17.0711C6.83216 20.9743 13.1678 20.9743 17.0711 17.0711C20.9743 13.1679 20.9743 6.83221 17.0711 2.92898ZM13.479 13.9457C13.1891 14.2356 12.7082 14.2356 12.4183 13.9457C12.1284 13.6558 12.1284 13.175 12.4183 12.885L14.5538 10.7496H3.63604C3.42391 10.7496 3.24006 10.6647 3.10571 10.5304C2.97136 10.396 2.88651 10.2122 2.88651 10C2.88651 9.58992 3.22592 9.25051 3.63604 9.25051L14.5538 9.25051L12.4183 7.11505C12.1284 6.82514 12.1284 6.3443 12.4183 6.05439C12.7082 5.76448 13.1891 5.76448 13.479 6.05439L16.8943 9.46972C17.1842 9.75963 17.1842 10.2405 16.8943 10.5304L13.479 13.9457Z" fill="white"/>
</svg>
